# Blender v2.79 (sub 0) OBJ File: 'Coin.blend'
# www.blender.org
mtllib Coin.mtl
o Coin
v -0.087421 1.000000 -1.000000
v 0.087421 1.000000 -1.000000
v -0.087421 0.804910 -0.980785
v 0.087421 0.804910 -0.980785
v -0.087421 0.617316 -0.923880
v 0.087421 0.617317 -0.923880
v -0.087421 0.444430 -0.831470
v 0.087421 0.444430 -0.831470
v -0.087421 0.292893 -0.707107
v 0.087421 0.292893 -0.707107
v -0.087421 0.168530 -0.555570
v 0.087421 0.168530 -0.555570
v -0.087421 0.076120 -0.382683
v 0.087421 0.076121 -0.382683
v -0.087421 0.019215 -0.195090
v 0.087421 0.019215 -0.195090
v -0.087421 0.000000 -0.000000
v 0.087421 0.000000 -0.000000
v -0.087421 0.019215 0.195090
v 0.087421 0.019215 0.195090
v -0.087421 0.076120 0.382683
v 0.087421 0.076120 0.382683
v -0.087421 0.168530 0.555570
v 0.087421 0.168530 0.555570
v -0.087421 0.292893 0.707107
v 0.087421 0.292893 0.707107
v -0.087421 0.444430 0.831470
v 0.087421 0.444430 0.831470
v -0.087421 0.617317 0.923880
v 0.087421 0.617317 0.923880
v -0.087421 0.804910 0.980785
v 0.087421 0.804910 0.980785
v -0.087421 1.000000 1.000000
v 0.087421 1.000000 1.000000
v -0.087421 1.195091 0.980785
v 0.087421 1.195091 0.980785
v -0.087421 1.382684 0.923879
v 0.087421 1.382684 0.923879
v -0.087421 1.555571 0.831469
v 0.087421 1.555571 0.831469
v -0.087421 1.707107 0.707106
v 0.087421 1.707107 0.707106
v -0.087421 1.831470 0.555570
v 0.087421 1.831470 0.555570
v -0.087421 1.923880 0.382683
v 0.087421 1.923880 0.382683
v -0.087421 1.980785 0.195089
v 0.087421 1.980785 0.195089
v -0.087421 2.000000 -0.000001
v 0.087421 2.000000 -0.000001
v -0.087421 1.980785 -0.195091
v 0.087421 1.980785 -0.195091
v -0.087421 1.923879 -0.382684
v 0.087421 1.923879 -0.382684
v -0.087421 1.831469 -0.555571
v 0.087421 1.831469 -0.555571
v -0.087421 1.707106 -0.707108
v 0.087421 1.707106 -0.707108
v -0.087421 1.555569 -0.831470
v 0.087421 1.555569 -0.831470
v -0.087421 1.382682 -0.923880
v 0.087421 1.382682 -0.923880
v -0.087421 1.195089 -0.980786
v 0.087421 1.195089 -0.980786
vt 0.659305 0.524438
vt 0.715843 0.524438
vt 0.715843 0.580976
vt 0.659305 0.580976
vt 0.659305 0.524438
vt 0.715843 0.524438
vt 0.715843 0.580976
vt 0.659305 0.580976
vt 0.659305 0.524438
vt 0.715843 0.524438
vt 0.715843 0.580976
vt 0.659305 0.580976
vt 0.659305 0.524438
vt 0.715843 0.524438
vt 0.715843 0.580976
vt 0.659305 0.580976
vt 0.659305 0.524438
vt 0.715843 0.524438
vt 0.715843 0.580976
vt 0.659305 0.580976
vt 0.659305 0.524438
vt 0.715843 0.524438
vt 0.715843 0.580976
vt 0.659305 0.580976
vt 0.659305 0.524438
vt 0.715843 0.524438
vt 0.715843 0.580976
vt 0.659305 0.580976
vt 0.659305 0.524438
vt 0.715843 0.524438
vt 0.715843 0.580976
vt 0.659305 0.580976
vt 0.659305 0.524438
vt 0.715843 0.524438
vt 0.715843 0.580976
vt 0.659305 0.580976
vt 0.659305 0.524438
vt 0.715843 0.524438
vt 0.715843 0.580976
vt 0.659305 0.580976
vt 0.659305 0.524438
vt 0.715843 0.524438
vt 0.715843 0.580976
vt 0.659305 0.580976
vt 0.659305 0.524438
vt 0.715843 0.524438
vt 0.715843 0.580976
vt 0.659305 0.580976
vt 0.659305 0.524438
vt 0.715843 0.524438
vt 0.715843 0.580976
vt 0.659305 0.580976
vt 0.659305 0.524438
vt 0.715843 0.524438
vt 0.715843 0.580976
vt 0.659305 0.580976
vt 0.659305 0.524438
vt 0.715843 0.524438
vt 0.715843 0.580976
vt 0.659305 0.580976
vt 0.659305 0.524438
vt 0.715843 0.524438
vt 0.715843 0.580976
vt 0.659305 0.580976
vt 0.659305 0.524438
vt 0.715843 0.524438
vt 0.715843 0.580976
vt 0.659305 0.580976
vt 0.659305 0.524438
vt 0.715843 0.524438
vt 0.715843 0.580976
vt 0.659305 0.580976
vt 0.659305 0.524438
vt 0.715843 0.524438
vt 0.715843 0.580976
vt 0.659305 0.580976
vt 0.659305 0.524438
vt 0.715843 0.524438
vt 0.715843 0.580976
vt 0.659305 0.580976
vt 0.659305 0.524438
vt 0.715843 0.524438
vt 0.715843 0.580976
vt 0.659305 0.580976
vt 0.659305 0.524438
vt 0.715843 0.524438
vt 0.715843 0.580976
vt 0.659305 0.580976
vt 0.659305 0.524438
vt 0.715843 0.524438
vt 0.715843 0.580976
vt 0.659305 0.580976
vt 0.659305 0.524438
vt 0.715843 0.524438
vt 0.715843 0.580976
vt 0.659305 0.580976
vt 0.659305 0.524438
vt 0.715843 0.524438
vt 0.715843 0.580976
vt 0.659305 0.580976
vt 0.659305 0.524438
vt 0.715843 0.524438
vt 0.715843 0.580976
vt 0.659305 0.580976
vt 0.659305 0.524438
vt 0.715843 0.524438
vt 0.715843 0.580976
vt 0.659305 0.580976
vt 0.659305 0.524438
vt 0.715843 0.524438
vt 0.715843 0.580976
vt 0.659305 0.580976
vt 0.659305 0.524438
vt 0.715843 0.524438
vt 0.715843 0.580976
vt 0.659305 0.580976
vt 0.659305 0.524438
vt 0.715843 0.524438
vt 0.715843 0.580976
vt 0.659305 0.580976
vt 0.805312 0.494667
vt 0.805820 0.554858
vt 0.794576 0.613992
vt 0.772012 0.669796
vt 0.738994 0.720126
vt 0.696792 0.763047
vt 0.647027 0.796910
vt 0.591612 0.820414
vt 0.532677 0.832655
vt 0.472486 0.833164
vt 0.413352 0.821920
vt 0.357548 0.799355
vt 0.307218 0.766338
vt 0.264297 0.724136
vt 0.230434 0.674371
vt 0.206930 0.618956
vt 0.194688 0.560020
vt 0.194180 0.499829
vt 0.205424 0.440695
vt 0.227989 0.384891
vt 0.261006 0.334562
vt 0.303208 0.291641
vt 0.352973 0.257777
vt 0.408388 0.234273
vt 0.467324 0.222032
vt 0.527515 0.221524
vt 0.586649 0.232768
vt 0.642453 0.255332
vt 0.692782 0.288350
vt 0.735703 0.330552
vt 0.769566 0.380317
vt 0.793070 0.435732
vt 0.659305 0.524438
vt 0.715843 0.524438
vt 0.715843 0.580976
vt 0.659305 0.580976
vt 0.659305 0.524438
vt 0.715843 0.524438
vt 0.715843 0.580976
vt 0.659305 0.580976
vt 0.194688 0.560021
vt 0.194180 0.499829
vt 0.205424 0.440696
vt 0.227988 0.384892
vt 0.261006 0.334562
vt 0.303208 0.291641
vt 0.352973 0.257778
vt 0.408388 0.234274
vt 0.467323 0.222032
vt 0.527514 0.221524
vt 0.586648 0.232768
vt 0.642452 0.255332
vt 0.692782 0.288350
vt 0.735703 0.330552
vt 0.769566 0.380317
vt 0.793070 0.435732
vt 0.805312 0.494667
vt 0.805820 0.554858
vt 0.794576 0.613992
vt 0.772011 0.669796
vt 0.738994 0.720126
vt 0.696792 0.763047
vt 0.647027 0.796910
vt 0.591612 0.820414
vt 0.532676 0.832655
vt 0.472485 0.833164
vt 0.413351 0.821920
vt 0.357547 0.799355
vt 0.307218 0.766337
vt 0.264297 0.724135
vt 0.230434 0.674371
vt 0.206930 0.618956
vn 0.0000 -0.0980 -0.9952
vn 0.0000 -0.2903 -0.9569
vn 0.0000 -0.4714 -0.8819
vn 0.0000 -0.6344 -0.7730
vn 0.0000 -0.7730 -0.6344
vn 0.0000 -0.8819 -0.4714
vn 0.0000 -0.9569 -0.2903
vn 0.0000 -0.9952 -0.0980
vn 0.0000 -0.9952 0.0980
vn 0.0000 -0.9569 0.2903
vn 0.0000 -0.8819 0.4714
vn 0.0000 -0.7730 0.6344
vn 0.0000 -0.6344 0.7730
vn 0.0000 -0.4714 0.8819
vn 0.0000 -0.2903 0.9569
vn 0.0000 -0.0980 0.9952
vn -0.0000 0.0980 0.9952
vn -0.0000 0.2903 0.9569
vn -0.0000 0.4714 0.8819
vn -0.0000 0.6344 0.7730
vn -0.0000 0.7730 0.6344
vn 0.0000 0.8819 0.4714
vn -0.0000 0.9569 0.2903
vn -0.0000 0.9952 0.0980
vn -0.0000 0.9952 -0.0980
vn -0.0000 0.9569 -0.2903
vn -0.0000 0.8819 -0.4714
vn -0.0000 0.7730 -0.6344
vn -0.0000 0.6344 -0.7730
vn 0.0000 0.4714 -0.8819
vn 1.0000 0.0000 0.0000
vn 0.0000 0.2903 -0.9569
vn 0.0000 0.0980 -0.9952
vn -1.0000 0.0000 0.0000
usemtl CoinMat
s off
f 1/1/1 2/2/1 4/3/1 3/4/1
f 3/5/2 4/6/2 6/7/2 5/8/2
f 5/9/3 6/10/3 8/11/3 7/12/3
f 7/13/4 8/14/4 10/15/4 9/16/4
f 9/17/5 10/18/5 12/19/5 11/20/5
f 11/21/6 12/22/6 14/23/6 13/24/6
f 13/25/7 14/26/7 16/27/7 15/28/7
f 15/29/8 16/30/8 18/31/8 17/32/8
f 17/33/9 18/34/9 20/35/9 19/36/9
f 19/37/10 20/38/10 22/39/10 21/40/10
f 21/41/11 22/42/11 24/43/11 23/44/11
f 23/45/12 24/46/12 26/47/12 25/48/12
f 25/49/13 26/50/13 28/51/13 27/52/13
f 27/53/14 28/54/14 30/55/14 29/56/14
f 29/57/15 30/58/15 32/59/15 31/60/15
f 31/61/16 32/62/16 34/63/16 33/64/16
f 33/65/17 34/66/17 36/67/17 35/68/17
f 35/69/18 36/70/18 38/71/18 37/72/18
f 37/73/19 38/74/19 40/75/19 39/76/19
f 39/77/20 40/78/20 42/79/20 41/80/20
f 41/81/21 42/82/21 44/83/21 43/84/21
f 43/85/22 44/86/22 46/87/22 45/88/22
f 45/89/23 46/90/23 48/91/23 47/92/23
f 47/93/24 48/94/24 50/95/24 49/96/24
f 49/97/25 50/98/25 52/99/25 51/100/25
f 51/101/26 52/102/26 54/103/26 53/104/26
f 53/105/27 54/106/27 56/107/27 55/108/27
f 55/109/28 56/110/28 58/111/28 57/112/28
f 57/113/29 58/114/29 60/115/29 59/116/29
f 59/117/30 60/118/30 62/119/30 61/120/30
f 4/121/31 2/122/31 64/123/31 62/124/31 60/125/31 58/126/31 56/127/31 54/128/31 52/129/31 50/130/31 48/131/31 46/132/31 44/133/31 42/134/31 40/135/31 38/136/31 36/137/31 34/138/31 32/139/31 30/140/31 28/141/31 26/142/31 24/143/31 22/144/31 20/145/31 18/146/31 16/147/31 14/148/31 12/149/31 10/150/31 8/151/31 6/152/31
f 61/153/32 62/154/32 64/155/32 63/156/32
f 63/157/33 64/158/33 2/159/33 1/160/33
f 1/161/34 3/162/34 5/163/34 7/164/34 9/165/34 11/166/34 13/167/34 15/168/34 17/169/34 19/170/34 21/171/34 23/172/34 25/173/34 27/174/34 29/175/34 31/176/34 33/177/34 35/178/34 37/179/34 39/180/34 41/181/34 43/182/34 45/183/34 47/184/34 49/185/34 51/186/34 53/187/34 55/188/34 57/189/34 59/190/34 61/191/34 63/192/34
